<?xml version="1.0" encoding="UTF-8" standalone="no"?>
<svg
   xmlns:dc="http://purl.org/dc/elements/1.1/"
   xmlns:cc="http://creativecommons.org/ns#"
   xmlns:rdf="http://www.w3.org/1999/02/22-rdf-syntax-ns#"
   xmlns:svg="http://www.w3.org/2000/svg"
   xmlns="http://www.w3.org/2000/svg"
   viewBox="0 0 42.900341 36.01902"
   height="36.01902"
   width="42.900341"
   id="svg2"
   version="1.1">
  <metadata
     id="metadata8">
    <rdf:RDF>
      <cc:Work
         rdf:about="">
        <dc:format>image/svg+xml</dc:format>
        <dc:type
           rdf:resource="http://purl.org/dc/dcmitype/StillImage" />
        <dc:title></dc:title>
      </cc:Work>
    </rdf:RDF>
  </metadata>
  <defs
     id="defs6" />
  <path
     id="path12"
     d="m 13.767653,32.26869 c -6.4454028,-3.542654 -6.733099,-3.860201 -6.75,-7.45037 -0.0097,-2.0625 0.2766022,-3.75 0.6362472,-3.75 0.359645,0 3.5096448,1.597024 6.9999998,3.548941 L 21,28.166202 27.3461,24.617261 c 3.490355,-1.951917 6.640355,-3.548941 7,-3.548941 0.359645,0 0.646261,1.6875 0.636925,3.75 -0.01633,3.608762 -0.278691,3.891238 -6.965821,7.5 -3.821866,2.0625 -7.076727,3.727666 -7.233025,3.70037 -0.156299,-0.0273 -3.313735,-1.714797 -7.016526,-3.75 z M 39,21.139265 v -6.929056 l -8.991917,4.960664 -8.991917,4.960664 -10.508083,-5.77002 C 4.728637,15.188006 0,12.356068 0,12.06832 0,11.780572 4.730728,8.9474853 10.51273,5.7725715 L 21.02546,0 31.76273,5.9361991 42.5,11.872398 42.79044,19.970359 C 43.0623,27.55005 42.9503,28.06832 41.040442,28.06832 39.182837,28.06832 39,27.447432 39,21.139265 Z"
     style="fill:#6b6b6b" />
</svg>
