<?xml version="1.0" encoding="UTF-8" standalone="no"?>
<svg
   xmlns:dc="http://purl.org/dc/elements/1.1/"
   xmlns:cc="http://creativecommons.org/ns#"
   xmlns:rdf="http://www.w3.org/1999/02/22-rdf-syntax-ns#"
   xmlns:svg="http://www.w3.org/2000/svg"
   xmlns="http://www.w3.org/2000/svg"
   viewBox="0 0 39.630939 39.545322"
   height="39.545322"
   width="39.630939"
   id="svg2"
   version="1.1">
  <metadata
     id="metadata8">
    <rdf:RDF>
      <cc:Work
         rdf:about="">
        <dc:format>image/svg+xml</dc:format>
        <dc:type
           rdf:resource="http://purl.org/dc/dcmitype/StillImage" />
        <dc:title></dc:title>
      </cc:Work>
    </rdf:RDF>
  </metadata>
  <defs
     id="defs6" />
  <path
     id="path3715"
     d="m 1.8581214,34.545321 c 0,-2.839817 -0.455709,-5 -1.05479099,-5 -0.634459,0 -0.933333,-1.892868 -0.75,-4.75 l 0.304791,-4.75 h 4.49999969 4.5 l 0.304791,4.75 c 0.183333,2.857132 -0.115541,4.75 -0.75,4.75 -0.580135,0 -1.054791,1.35 -1.054791,3 v 3 h 7.9999999 8 v -3.980948 c 0,-3.407755 -0.358407,-4.070902 -2.489215,-4.605701 -3.47619,-0.872468 -8.114062,-6.485101 -8.923309,-10.798758 -1.112535,-5.930317 2.252112,-12.2137485 7.871187,-14.6993324 5.813333,-2.5715136 10.642454,-1.76594081 15.366568,2.563383 2.9938,2.7436163 3.53929,3.9522243 3.8845,8.6065984 0.50706,6.836554 -2.03969,11.362571 -7.74071,13.756594 -3.59776,1.510803 -3.949583,1.991427 -3.95885,5.408164 -0.0095,3.50226 0.188021,3.75 2.989829,3.75 2.333333,0 3,0.444444 3,2 0,1.916667 -0.666667,2 -16,2 H 1.8581214 Z m 0.38854,-18.429863 c -0.995668,-2.594671 0.399883,-4.739185 2.8569887,-4.390274 3.2046,0.455056 3.2046,5.185218 0,5.640274 -1.3522787,0.192025 -2.4955857,-0.308199 -2.8569887,-1.25 z"
     style="fill:#6b6b6b" />
</svg>
