<?xml version="1.0" encoding="UTF-8" standalone="no"?>
<svg
   xmlns:dc="http://purl.org/dc/elements/1.1/"
   xmlns:cc="http://creativecommons.org/ns#"
   xmlns:rdf="http://www.w3.org/1999/02/22-rdf-syntax-ns#"
   xmlns:svg="http://www.w3.org/2000/svg"
   xmlns="http://www.w3.org/2000/svg"
   viewBox="0 0 40.120731 28"
   height="28"
   width="40.120731"
   id="svg2"
   version="1.1">
  <metadata
     id="metadata8">
    <rdf:RDF>
      <cc:Work
         rdf:about="">
        <dc:format>image/svg+xml</dc:format>
        <dc:type
           rdf:resource="http://purl.org/dc/dcmitype/StillImage" />
        <dc:title></dc:title>
      </cc:Work>
    </rdf:RDF>
  </metadata>
  <defs
     id="defs6" />
  <path
     id="path12"
     d="M 0.310365,24.298903 C 0.702822,19.61886 4.589009,17.116791 12.778318,16.27158 l 5.739941,-0.592414 -2.198765,2.795276 C 15.043842,20.09617 14.12073,22.682513 14.12073,24.634859 V 28 H 7.0603649 0 Z m 17.810365,0.72415 c 0,-4.232092 3.86331,-6.523053 11,-6.523053 7.13669,0 11,2.290961 11,6.523053 V 28 h -11 -11 z M 25.692159,12.428571 C 22.691429,9.4278421 24.845555,4 29.037171,4 31.142347,4 34.12073,7.0312267 34.12073,9.1737531 34.12073,11.098475 30.960049,14 28.863418,14 27.983511,14 26.556444,13.292857 25.692159,12.428571 Z M 10.12073,9.9999999 C 9.0207299,8.9 8.1207299,7.1 8.1207299,6 c 0,-2.5755637 3.4244361,-6 6.0000001,-6 2.575564,0 6,3.4244363 6,6 0,2.5755637 -3.424436,6 -6,6 -1.1,0 -2.9,-0.9 -4,-2.0000001 z"
     style="fill:#6b6b6b" />
</svg>
