<?xml version="1.0" encoding="UTF-8" standalone="no"?>
<svg
   xmlns:dc="http://purl.org/dc/elements/1.1/"
   xmlns:cc="http://creativecommons.org/ns#"
   xmlns:rdf="http://www.w3.org/1999/02/22-rdf-syntax-ns#"
   xmlns:svg="http://www.w3.org/2000/svg"
   xmlns="http://www.w3.org/2000/svg"
   viewBox="0 0 106.27657 121.98058"
   height="121.98058"
   width="106.27657"
   id="svg2"
   version="1.1">
  <metadata
     id="metadata8">
    <rdf:RDF>
      <cc:Work
         rdf:about="">
        <dc:format>image/svg+xml</dc:format>
        <dc:type
           rdf:resource="http://purl.org/dc/dcmitype/StillImage" />
        <dc:title></dc:title>
      </cc:Work>
    </rdf:RDF>
  </metadata>
  <defs
     id="defs6" />
  <path
     id="path3715"
     d="M 46.43892,120.17759 C 24.88453,112.4232 10.73147,93.622876 3.62944,63.311291 1.72228,55.171497 1.00264,48.732521 0.56809,35.920009 L 0,19.170009 H 8.4281903 C 22.99779,19.170009 37.62478,13.800936 48.0351,4.6316485 L 53.29362,0 58.39035,4.582399 c 5.87438,5.2815682 16.73725,10.884188 25.34632,13.072578 3.27805,0.833267 9.69055,1.515032 14.249995,1.515032 h 8.289905 v 13.400627 c 0,44.531682 -16.71531,77.121684 -44.78041,87.308764 -7.55671,2.74294 -8.22495,2.75617 -15.05724,0.29819 z m 17.62194,-12.53605 c 13.48685,-6.7472 22.68268,-20.031908 27.78244,-40.135722 2.50223,-9.864086 4.520615,-30.544437 3.66835,-37.585809 l -0.45389,-3.75 -6.64059,-0.02445 c -3.65233,-0.01344 -8.6656,-0.490825 -11.1406,-1.060844 -6.42521,-1.479794 -16.1897,-6.513593 -20.07982,-10.35156 l -3.3302,-3.285557 -4.7355,3.743199 C 39.99388,22.41332 29.43007,26.138085 18.02657,26.158136 l -6.75,0.01187 0.0198,10.25 c 0.0706,36.547284 13.39668,64.459464 34.76257,72.812164 6.81185,2.663 10.07589,2.37459 18.00191,-1.59063 z M 52.46987,101.35126 C 55.2874,97.429635 85.65305,64.213158 86.05401,64.614118 86.74274,65.302847 83.24135,75.1839 80.04171,81.581041 74.49399,92.672764 61.84312,103.17001 54.02352,103.17001 c -2.57765,0 -2.73121,-0.17976 -1.55365,-1.81875 z m -14.13708,-4.874395 -3.10262,-2.806856 26.2732,-28.624999 26.2732,-28.624999 0.29831,5.897871 0.29831,5.89787 -22.71362,25.227128 c -12.49249,13.874921 -23.0535,25.365215 -23.4689,25.533985 -0.41539,0.16878 -2.15144,-0.95622 -3.85788,-2.5 z M 26.40659,80.942442 C 21.93091,71.564496 19.25881,59.481834 18.585,45.574845 l -0.58603,-12.095164 7.3888,-0.561202 c 8.83128,-0.670762 16.07204,-3.255644 22.93883,-8.188945 l 5.06344,-3.637717 3.69326,2.906023 c 5.17675,4.073287 11.2592,6.992958 17.24053,8.275724 l 5.11332,1.096612 -1.92343,2.149916 c -3.54999,3.967996 -42.4607,46.116356 -45.25594,49.021553 l -2.76294,2.871636 z"
     style="fill:#747474" />
</svg>
